<svg width="16" height="16" viewBox="0 0 16 16" fill="none" xmlns="http://www.w3.org/2000/svg">
<g clip-path="url(#clip0_13037_1211)">
<path d="M12.6666 13.3344H3.33329C3.15648 13.3344 2.98691 13.4046 2.86189 13.5296C2.73686 13.6546 2.66663 13.8242 2.66663 14.001C2.66663 14.1778 2.73686 14.3474 2.86189 14.4724C2.98691 14.5974 3.15648 14.6677 3.33329 14.6677H12.6666C12.8434 14.6677 13.013 14.5974 13.138 14.4724C13.2631 14.3474 13.3333 14.1778 13.3333 14.001C13.3333 13.8242 13.2631 13.6546 13.138 13.5296C13.013 13.4046 12.8434 13.3344 12.6666 13.3344Z" fill="white"/>
<path d="M3.33329 12.001H3.39329L6.17329 11.7476C6.47782 11.7173 6.76264 11.5831 6.97995 11.3676L12.98 5.36763C13.2128 5.12161 13.3387 4.7933 13.3299 4.45465C13.3212 4.11601 13.1786 3.79463 12.9333 3.56096L11.1066 1.7343C10.8682 1.51036 10.5558 1.38187 10.2288 1.37326C9.90187 1.36466 9.58314 1.47654 9.33329 1.68763L3.33329 7.68763C3.1178 7.90494 2.98362 8.18977 2.95329 8.4943L2.66662 11.2743C2.65764 11.3719 2.67031 11.4704 2.70373 11.5626C2.73715 11.6547 2.79049 11.7384 2.85995 11.8076C2.92225 11.8694 2.99612 11.9183 3.07735 11.9515C3.15857 11.9847 3.24555 12.0015 3.33329 12.001ZM10.18 2.66763L12 4.48763L10.6666 5.78763L8.87995 4.00096L10.18 2.66763ZM4.24662 8.60763L7.99995 4.88096L9.79995 6.68096L6.06662 10.4143L4.06662 10.601L4.24662 8.60763Z" fill="white"/>
</g>
<defs>
<clipPath id="clip0_13037_1211">
<rect width="16" height="16" fill="white" transform="translate(0 0.000976562)"/>
</clipPath>
</defs>
</svg>
