<!--suppress ALL -->
<svg xmlns="http://www.w3.org/2000/svg" version="1.1"
     width="2000" height="257"
     viewBox="0 0 2000 257"><g transform="matrix(1,0,0,1,-1.2121212121212466,0.8018329978648637)">
    <svg viewBox="0 0 396 51" data-background-color="#090909" preserveAspectRatio="xMidYMid meet"
         height="257" width="2000" xmlns="http://www.w3.org/2000/svg"
    ><g id="tight-bounds"
                                                       transform="matrix(1,0,0,1,0.2400000000000091,-0.1591186104712392)"><svg viewBox="0 0 395.52 51.31823722094251" height="51.31823722094251" width="395.52"><g><svg viewBox="0 0 477.5501658229055 61.96155110892065" height="51.31823722094251" width="395.52"><g><rect width="4.0432392354002955" height="45.058870379497286" x="67.40253068331597" y="8.451340364711683" fill="#d9d2d7" opacity="1" stroke-width="0" stroke="transparent" fill-opacity="1" class="rect-r$-0"
                                                                                                                                                                                                                                                                                                                             rx="1%" id="r$-0"></rect></g><g transform="matrix(1,0,0,1,82.03016582290552,8.563427106949238)"><svg viewBox="0 0 395.52 44.83469689502218" height="44.83469689502218" width="395.52"><g id="textblocktransform"><svg viewBox="0 0 395.52 44.83469689502218" height="44.83469689502218" width="395.52" id="textblock"><g><svg viewBox="0 0 395.52 44.83469689502218" height="44.83469689502218" width="395.52"><g transform="matrix(1,0,0,1,0,0)"><svg width="395.52" viewBox="4.2 -33.08 292.51000000000005 33.69" height="44.83469689502218" data-palette-color="#d9d2d7"><g class="wordmark-text-0"
                                                                                                                                                                                                                                                                                                                                                                                                                                                                                                                                                                                                                                                                                                                                                                                                                                                                                                            id="text-0"><path d="M21.24-20.07L21.31-14.04Q20.14-14.16 18.29-14.16L18.29-14.16 10.89-14.16 10.89 0 4.2 0 4.2-32.64Q4.86-32.59 5.71-32.57L5.71-32.57 7.52-32.52Q9.38-32.47 11.38-32.47L11.38-32.47Q17.38-32.47 22.85-32.67L22.85-32.67Q22.58-30.52 22.58-26.93L22.58-26.93Q22.58-26.54 22.63-26.34L22.63-26.34 22.58-26.27Q21.29-26.64 18.97-26.64L18.97-26.64 10.89-26.64 10.89-19.92 18.02-19.92Q20.7-19.92 21.24-20.07L21.24-20.07ZM36.23 0L33.91 0Q30.32 0 29.15 0.15L29.15 0.15 29.15-32.62Q29.73-32.47 31.58-32.47 33.42-32.47 35.86-32.57L35.86-32.57 35.86-5.86 40.92-5.86Q43.11-5.86 44.43-6.01L44.43-6.01Q44.26-0.29 44.26-0.07L44.26-0.07 44.26 0.17Q41.87 0 36.23 0L36.23 0ZM54.68-7.03L52.39 0.2Q50.29 0 47.48 0L47.48 0 45.55 0 56.17-29.76Q56.88-31.76 56.88-32.09 56.88-32.42 56.86-32.5L56.86-32.5 56.88-32.54Q58.47-32.47 60.25-32.47L60.25-32.47Q61.71-32.47 63.76-32.52L63.76-32.52 63.79-32.47Q63.74-32.37 63.74-32.2L63.74-32.2Q63.74-31.74 64.47-29.74L64.47-29.74 75.31 0.07Q74.82 0.05 74.16 0.05L74.16 0.05Q74.16 0.05 72.9 0L72.9 0Q72.29 0 71.8 0L71.8 0 68.01 0 65.72-7.03 54.68-7.03ZM56.54-12.89L63.81-12.89 60.13-24.24 56.54-12.89ZM98.85-30.66L98.85-30.66 98.38-23.49 98.21-23.44Q96.4-26.15 92.06-26.95L92.06-26.95Q90.69-27.22 89.43-27.22 88.18-27.22 87.28-27 86.39-26.78 85.76-26.37L85.76-26.37Q84.42-25.49 84.42-24.07L84.42-24.07Q84.42-22.22 85.59-21.29L85.59-21.29Q87.05-20.17 90.45-19.71 93.84-19.26 95.89-18.48 97.94-17.7 99.26-16.5L99.26-16.5Q101.75-14.26 101.75-10.16L101.75-10.16Q101.75-4.79 97.7-1.88L97.7-1.88Q94.23 0.61 88.96 0.61L88.96 0.61Q84.71 0.61 80.56-1L80.56-1Q79.19-1.54 78.17-2.25L78.17-2.25 78.43-10.4 78.53-10.47Q81.56-5.25 88.47-5.25L88.47-5.25Q93.38-5.25 94.96-7.62L94.96-7.62Q95.5-8.42 95.5-9.41 95.5-10.4 95.18-11.05 94.87-11.69 94.13-12.16L94.13-12.16Q92.72-13.09 89.37-13.4 86.03-13.72 83.9-14.6 81.78-15.48 80.51-16.77L80.51-16.77Q78.22-19.12 78.22-23.32L78.22-23.32Q78.22-27.66 81.27-30.35L81.27-30.35Q84.37-33.08 89.63-33.08 94.89-33.08 98.85-30.66ZM114.96-13.79L114.96 0.15Q112.61 0 109.39 0L109.39 0 108.61 0 108.61-32.59Q110.12-32.47 110.76-32.47L110.76-32.47 111.76-32.47Q113.69-32.47 114.96-32.67L114.96-32.67 114.96-19.65 126.43-19.65 126.43-32.59Q128.46-32.47 130.37-32.47 132.29-32.47 132.78-32.67L132.78-32.67 132.78 0.15Q131.61 0 128.14 0L128.14 0 126.43 0 126.43-13.79 114.96-13.79Z" fill="#d9d2d7"></path></g></svg></g></svg></g></svg></g></svg></g><g><svg viewBox="0 0 56.818134779126716 61.96155110892065" height="61.96155110892065" width="56.818134779126716"><g>
        <svg xmlns="http://www.w3.org/2000/svg"  version="1.1" x="0" y="0" viewBox="4 0.06000000000000005 91.64399999999999 99.94" enable-background="new 0 0 100 100" xml:space="preserve" height="61.96155110892065" width="56.818134779126716" class="icon-icon-0" data-fill-palette-color="accent" id="icon-0"></svg></g></svg></g></svg></g><defs></defs><mask id="eea8a689-d2b1-4f2b-a609-b1f113423f6a"><g id="SvgjsG1009"><svg viewBox="0 0 395.52 51.31823722094251" height="51.31823722094251" width="395.52"><g><svg viewBox="0 0 477.5501658229055 61.96155110892065" height="51.31823722094251" width="395.52"><g></g><g transform="matrix(1,0,0,1,82.03016582290552,8.563427106949238)"><svg viewBox="0 0 395.52 44.83469689502218" height="44.83469689502218" width="395.52"><g id="SvgjsG1007"><svg viewBox="0 0 395.52 44.83469689502218" height="44.83469689502218" width="395.52" id="SvgjsSvg1006"><g><svg viewBox="0 0 395.52 44.83469689502218" height="44.83469689502218" width="395.52"><g transform="matrix(1,0,0,1,0,0)"><svg width="395.52" viewBox="4.2 -33.08 292.51000000000005 33.69" height="44.83469689502218" data-palette-color="#d9d2d7"><g class="wordmark-text-0"
                                                                                                                                                                                                                                                                                                                                                                                                                                                                                                                                                                                                                                                                                                                                                                                                                                                                                                                                                                                                                                             id="SvgjsG1005"><path d="M168.1-33.08L168.1-33.08Q172.67-33.08 175.89-31.49L175.89-31.49 175.89-24.02 175.84-23.97Q174.48-26.07 170.08-26.76L170.08-26.76Q168.79-26.98 166.81-26.98 164.83-26.98 162.93-26.23 161.02-25.49 159.8-24.12L159.8-24.12Q157.44-21.46 157.44-16.53L157.44-16.53Q157.44-10.79 160.44-7.98L160.44-7.98Q162.93-5.64 167.03-5.64L167.03-5.64Q171.67-5.64 174.55-7.62L174.55-7.62Q175.6-8.33 176.33-9.38L176.33-9.38 176.41-9.33 176.41-2.49Q172.67 0.61 166.35 0.61L166.35 0.61Q158.9 0.61 154.68-4.13L154.68-4.13Q150.62-8.64 150.62-16.09L150.62-16.09Q150.62-23.97 155.07-28.52L155.07-28.52Q159.56-33.08 168.1-33.08ZM187.22-7.03L184.92 0.2Q182.82 0 180.02 0L180.02 0 178.09 0 188.71-29.76Q189.42-31.76 189.42-32.09 189.42-32.42 189.39-32.5L189.39-32.5 189.42-32.54Q191-32.47 192.78-32.47L192.78-32.47Q194.25-32.47 196.3-32.52L196.3-32.52 196.32-32.47Q196.28-32.37 196.28-32.2L196.28-32.2Q196.28-31.74 197.01-29.74L197.01-29.74 207.85 0.07Q207.36 0.05 206.7 0.05L206.7 0.05Q206.7 0.05 205.43 0L205.43 0Q204.82 0 204.33 0L204.33 0 200.55 0 198.25-7.03 187.22-7.03ZM189.07-12.89L196.35-12.89 192.66-24.24 189.07-12.89ZM227.94 0.2L222.27-12.62Q221.54-12.57 220.71-12.57 219.88-12.57 218.25-12.7L218.25-12.7 218.25 0 211.78 0 211.78-32.64Q215.19-33.08 220.17-33.08L220.17-33.08Q226.96-33.08 230.29-30.58 233.63-28.08 233.63-22.85L233.63-22.85Q233.63-18.8 230.58-15.92L230.58-15.92Q229.57-14.99 228.28-14.31L228.28-14.31 233.26-3.81Q234.73-0.56 235.51 0.05L235.51 0.05 235.38 0.17Q233.02-0.22 227.94 0.2L227.94 0.2ZM220.64-27.32L220.64-27.32Q219.39-27.32 218.25-27.2L218.25-27.2 218.25-17.87Q219.44-17.7 221.05-17.7 222.67-17.7 223.76-17.98 224.86-18.26 225.67-18.85L225.67-18.85Q227.4-20.14 227.4-22.73 227.4-25.32 225.59-26.37L225.59-26.37Q223.91-27.32 220.64-27.32ZM248.81 0.61L248.81 0.61Q244.85 0.61 241.36-0.02L241.36-0.02 241.36-32.69Q244.59-33.08 248.85-33.08 253.11-33.08 256.56-31.92 260.02-30.76 262.34-28.61L262.34-28.61Q267.02-24.32 267.02-16.58L267.02-16.58Q267.02-7.91 261.8-3.42L261.8-3.42Q257.11 0.61 248.81 0.61ZM247.71-27.1L247.71-5.35Q249.3-5.05 250.89-5.05 252.47-5.05 254.3-5.68 256.13-6.3 257.48-7.62L257.48-7.62Q260.36-10.4 260.36-15.72L260.36-15.72Q260.36-24.46 253.99-26.46L253.99-26.46Q251.89-27.12 249.13-27.12L249.13-27.12 248.47-27.12Q248.1-27.12 247.71-27.1L247.71-27.1ZM293.8-30.66L293.8-30.66 293.34-23.49 293.17-23.44Q291.36-26.15 287.02-26.95L287.02-26.95Q285.65-27.22 284.39-27.22 283.13-27.22 282.24-27 281.35-26.78 280.72-26.37L280.72-26.37Q279.37-25.49 279.37-24.07L279.37-24.07Q279.37-22.22 280.55-21.29L280.55-21.29Q282.01-20.17 285.4-19.71 288.8-19.26 290.85-18.48 292.9-17.7 294.22-16.5L294.22-16.5Q296.71-14.26 296.71-10.16L296.71-10.16Q296.71-4.79 292.66-1.88L292.66-1.88Q289.19 0.61 283.91 0.61L283.91 0.61Q279.67 0.61 275.52-1L275.52-1Q274.15-1.54 273.12-2.25L273.12-2.25 273.39-10.4 273.49-10.47Q276.52-5.25 283.43-5.25L283.43-5.25Q288.33-5.25 289.92-7.62L289.92-7.62Q290.46-8.42 290.46-9.41 290.46-10.4 290.14-11.05 289.82-11.69 289.09-12.16L289.09-12.16Q287.67-13.09 284.33-13.4 280.99-13.72 278.86-14.6 276.74-15.48 275.47-16.77L275.47-16.77Q273.17-19.12 273.17-23.32L273.17-23.32Q273.17-27.66 276.22-30.35L276.22-30.35Q279.33-33.08 284.59-33.08 289.85-33.08 293.8-30.66Z" fill="white"></path></g></svg></g></svg></g></svg></g></svg></g><g><svg viewBox="0 0 56.818134779126716 61.96155110892065" height="61.96155110892065" width="56.818134779126716"><g>
        <svg xmlns="http://www.w3.org/2000/svg"  version="1.1" x="0" y="0" viewBox="4 0.06000000000000005 91.64399999999999 99.94" enable-background="new 0 0 100 100" xml:space="preserve" height="61.96155110892065" width="56.818134779126716" class="icon-icon-0" data-fill-palette-color="accent" id="SvgjsSvg1004"></svg></g></svg></g></svg></g><defs><mask></mask></defs></svg></g></mask><linearGradient x1="0" x2="1" y1="0.578" y2="0.595" id="7a4b8265-bb80-499d-897c-2b8342bb0b88"><stop stop-color="#6ee2f5" offset="0"></stop><stop stop-color="#6454f0" offset="1"></stop></linearGradient><rect width="395.52" height="51.31823722094251" fill="url(#7a4b8265-bb80-499d-897c-2b8342bb0b88)" mask="url(#eea8a689-d2b1-4f2b-a609-b1f113423f6a)"></rect><mask id="1be0e599-b376-475d-b8b1-0f816f110c3b"><g id="SvgjsG1020"><svg viewBox="0 0 395.52 51.31823722094251" height="51.31823722094251" width="395.52"><g><svg viewBox="0 0 477.5501658229055 61.96155110892065" height="51.31823722094251" width="395.52"><g></g><g transform="matrix(1,0,0,1,82.03016582290552,8.563427106949238)"><svg viewBox="0 0 395.52 44.83469689502218" height="44.83469689502218" width="395.52"><g id="SvgjsG1018"><svg viewBox="0 0 395.52 44.83469689502218" height="44.83469689502218" width="395.52" id="SvgjsSvg1017"><g><svg viewBox="0 0 395.52 44.83469689502218" height="44.83469689502218" width="395.52"><g transform="matrix(1,0,0,1,0,0)"><svg width="395.52" viewBox="4.2 -33.08 292.51000000000005 33.69" height="44.83469689502218" data-palette-color="#d9d2d7"><g class="wordmark-text-0"
                                                                                                                                                                                                                                                                                                                                                                                                                                                                                                                                                                                                                                                                                                                                                                                                                                                                                                                                                                                                                                         id="SvgjsG1016"></g></svg></g></svg></g></svg></g></svg></g><g><svg viewBox="0 0 56.818134779126716 61.96155110892065" height="61.96155110892065" width="56.818134779126716"><g>
        <svg xmlns="http://www.w3.org/2000/svg"  version="1.1" x="0" y="0" viewBox="4 0.06000000000000005 91.64399999999999 99.94" enable-background="new 0 0 100 100" xml:space="preserve" height="61.96155110892065" width="56.818134779126716" class="icon-icon-0" data-fill-palette-color="accent" id="SvgjsSvg1015"><path fill="white" d="M50.122 41.041c7.869 0 14.251-6.389 14.251-14.253 0-7.875-6.383-14.25-14.251-14.25-7.868 0-14.249 6.374-14.249 14.25C35.873 34.652 42.254 41.041 50.122 41.041z"></path><path fill="white" d="M27.8 100V87.354l-12.681 3.529c-0.931 0.37-1.942 0.577-2.999 0.577C7.636 91.461 4 87.814 4 83.336c0-1.688 0.512-3.249 1.387-4.544l20.342-27.893c2.209-3.026 5.293-6.396 11.797-6.396h24.594c6.501 0 9.587 3.371 11.793 6.396l20.341 27.893c0.875 1.295 1.39 2.856 1.39 4.544 0 4.479-3.64 8.125-8.12 8.125-1.056 0-2.071-0.207-2.999-0.577l-12.686-3.529V100H27.8zM49.822 91.165L49.822 91.165l16.433-5.437-0.37-0.104c-11.339-3.336-6.924-18.316 4.412-14.972l1.55 0.521V54.258l-22.025 7.195-22.024-7.195v16.916l1.542-0.521c11.345-3.345 15.758 11.636 4.414 14.974l-0.363 0.102L49.822 91.165 49.822 91.165z"></path><g fill="white"><path fill="white" d="M14.6 36.034c0.506 1.087 1.725 1.789 3.105 1.789h0.003c1.378 0 2.597-0.702 3.104-1.789l0.351-0.752h-6.915L14.6 36.034z"></path><path fill="white" d="M21.483 31.167l-7.524-0.001c-0.514 0.001-0.827 0.227-0.998 0.416-0.218 0.24-0.337 0.567-0.336 0.919-0.001 0.377 0.133 0.721 0.376 0.964 0.243 0.244 0.575 0.373 0.96 0.373h7.522c0.787 0 1.336-0.549 1.336-1.336C22.817 31.716 22.269 31.167 21.483 31.167z"></path><path fill="white" d="M22.519 27.223h-9.596c-0.786 0.002-1.334 0.551-1.334 1.337 0 0.787 0.549 1.336 1.334 1.336h9.595c0.787 0 1.336-0.55 1.336-1.335 0.001-0.377-0.133-0.72-0.376-0.965C23.234 27.352 22.903 27.223 22.519 27.223z"></path><path fill="white" d="M26.435 3.586c-2.276-2.273-5.307-3.526-8.534-3.526-6.639 0-12.041 5.401-12.042 12.04 0.001 3.25 1.349 6.41 3.657 8.628 0.597 0.717 0.967 1.685 1.092 4.511 0.041 0.895 0.688 1.52 1.658 1.52 0.001 0 0.003 0 0.005 0 0.448-0.02 0.848-0.198 1.128-0.503 0.278-0.303 0.414-0.704 0.393-1.159-0.146-3.276-0.667-5.042-1.959-6.554-1.771-1.688-2.786-4.036-2.786-6.442 0-4.882 3.971-8.854 8.851-8.854 4.897 0 8.88 3.973 8.88 8.854 0 2.406-1.016 4.755-2.824 6.484-1.254 1.47-1.774 3.235-1.92 6.514-0.041 0.922 0.599 1.621 1.519 1.662l0.083 0.002c0.891 0 1.541-0.626 1.581-1.523 0.126-2.825 0.496-3.793 1.053-4.468 2.35-2.262 3.697-5.422 3.696-8.671C29.964 8.882 28.71 5.859 26.435 3.586zM23.633 26.225L23.633 26.225l0.001 0.008L23.633 26.225z"></path></g></svg></g></svg></g></svg></g><defs><mask></mask></defs><mask><g id="SvgjsG1014"><svg viewBox="0 0 395.52 51.31823722094251" height="51.31823722094251" width="395.52"><g><svg viewBox="0 0 477.5501658229055 61.96155110892065" height="51.31823722094251" width="395.52"><g></g><g transform="matrix(1,0,0,1,82.03016582290552,8.563427106949238)"><svg viewBox="0 0 395.52 44.83469689502218" height="44.83469689502218" width="395.52"><g id="SvgjsG1013"><svg viewBox="0 0 395.52 44.83469689502218" height="44.83469689502218" width="395.52" id="SvgjsSvg1012"><g><svg viewBox="0 0 395.52 44.83469689502218" height="44.83469689502218" width="395.52"><g transform="matrix(1,0,0,1,0,0)"><svg width="395.52" viewBox="4.2 -33.08 292.51000000000005 33.69" height="44.83469689502218" data-palette-color="#d9d2d7"><g class="wordmark-text-0"
                                                                                                                                                                                                                                                                                                                                                                                                                                                                                                                                                                                                                                                                                                                                                                                                                                                                                                                                                                                                                                                                                                                                                                                                                                                                                                                                                                                                                                                                                                                                                                                                    id="SvgjsG1011"></g></svg></g></svg></g></svg></g></svg></g><g><svg viewBox="0 0 56.818134779126716 61.96155110892065" height="61.96155110892065" width="56.818134779126716"><g>
        <svg xmlns="http://www.w3.org/2000/svg"  version="1.1" x="0" y="0" viewBox="4 0.06000000000000005 91.64399999999999 99.94" enable-background="new 0 0 100 100" xml:space="preserve" height="61.96155110892065" width="56.818134779126716" class="icon-icon-0" data-fill-palette-color="accent" id="SvgjsSvg1010"></svg></g></svg></g></svg></g><defs><mask></mask></defs></svg></g></mask></svg></g></mask><linearGradient x1="0" x2="1" y1="0.548" y2="0.55" id="814f0b03-e16a-49bf-9b1a-7c93ac9f2e6a"><stop stop-color="#ff6cab" offset="0"></stop><stop stop-color="#7366ff" offset="1"></stop></linearGradient><rect width="395.52" height="51.31823722094251" fill="url(#814f0b03-e16a-49bf-9b1a-7c93ac9f2e6a)" mask="url(#1be0e599-b376-475d-b8b1-0f816f110c3b)"></rect></svg><rect width="395.52" height="51.31823722094251" fill="none" stroke="none" visibility="hidden"></rect></g></svg></g></svg>