<svg width="16" height="16" viewBox="0 0 16 16" fill="none" xmlns="http://www.w3.org/2000/svg">
<g clip-path="url(#clip0_13037_1202)">
<path d="M8.00004 1.33435C6.6815 1.33435 5.39257 1.72534 4.29624 2.45789C3.19991 3.19043 2.34543 4.23162 1.84085 5.44979C1.33626 6.66797 1.20424 8.00841 1.46148 9.30162C1.71871 10.5948 2.35365 11.7827 3.286 12.7151C4.21835 13.6474 5.40624 14.2824 6.69944 14.5396C7.99265 14.7968 9.33309 14.6648 10.5513 14.1602C11.7694 13.6556 12.8106 12.8011 13.5432 11.7048C14.2757 10.6085 14.6667 9.31956 14.6667 8.00102C14.6667 7.12554 14.4943 6.25863 14.1592 5.44979C13.8242 4.64096 13.3331 3.90603 12.7141 3.28697C12.095 2.66791 11.3601 2.17685 10.5513 1.84182C9.74243 1.50679 8.87552 1.33435 8.00004 1.33435ZM8.00004 13.3344C6.94521 13.3344 5.91406 13.0216 5.037 12.4355C4.15994 11.8495 3.47635 11.0165 3.07269 10.042C2.66902 9.06746 2.5634 7.9951 2.76919 6.96054C2.97498 5.92597 3.48293 4.97566 4.22881 4.22978C4.97469 3.4839 5.925 2.97595 6.95956 2.77016C7.99413 2.56437 9.06648 2.66999 10.041 3.07366C11.0156 3.47733 11.8485 4.16091 12.4345 5.03798C13.0206 5.91504 13.3334 6.94618 13.3334 8.00102C13.3334 9.41551 12.7715 10.7721 11.7713 11.7723C10.7711 12.7724 9.41453 13.3344 8.00004 13.3344Z" fill="white"/>
<path d="M8.22666 4.96765C8.06331 4.81711 7.85932 4.7179 7.64004 4.68234C7.42077 4.64678 7.19588 4.67645 6.99333 4.76765C6.7967 4.84719 6.62825 4.98354 6.5095 5.15929C6.39075 5.33504 6.32709 5.54221 6.32666 5.75431V10.2476C6.32709 10.4598 6.39075 10.6669 6.5095 10.8427C6.62825 11.0184 6.7967 11.1548 6.99333 11.2343C7.13784 11.2999 7.29464 11.3339 7.45333 11.3343C7.73927 11.333 8.01467 11.2262 8.22666 11.0343L10.6667 8.78765C10.7758 8.68772 10.8629 8.56617 10.9226 8.43074C10.9822 8.29531 11.013 8.14895 11.013 8.00098C11.013 7.85301 10.9822 7.70665 10.9226 7.57122C10.8629 7.43579 10.7758 7.31425 10.6667 7.21431L8.22666 4.96765ZM7.66666 9.73431V6.26765L9.53999 8.00098L7.66666 9.73431Z" fill="white"/>
</g>
<defs>
<clipPath id="clip0_13037_1202">
<rect width="16" height="16" fill="white" transform="translate(0 0.000976562)"/>
</clipPath>
</defs>
</svg>
