<svg width="16" height="17" viewBox="0 0 16 17" fill="none" xmlns="http://www.w3.org/2000/svg">
<g clip-path="url(#clip0_16204_707)">
<path d="M11.7066 14.5C11.6 14.5004 11.4949 14.4753 11.4 14.4266L7.99996 12.6466L4.59996 14.4266C4.48956 14.4847 4.36508 14.5106 4.24068 14.5014C4.11628 14.4923 3.99695 14.4484 3.89625 14.3748C3.79555 14.3012 3.71752 14.2008 3.67104 14.085C3.62456 13.9693 3.61148 13.8428 3.6333 13.72L4.29996 9.96664L1.5533 7.29997C1.4676 7.21446 1.40681 7.10722 1.37745 6.98977C1.34809 6.87232 1.35126 6.74909 1.38663 6.63331C1.42527 6.51482 1.49635 6.40954 1.5918 6.32941C1.68725 6.24928 1.80325 6.19751 1.92663 6.17997L5.72663 5.62664L7.39996 2.20664C7.45455 2.09393 7.53979 1.99887 7.6459 1.93236C7.75202 1.86584 7.87473 1.83057 7.99996 1.83057C8.1252 1.83057 8.24791 1.86584 8.35402 1.93236C8.46014 1.99887 8.54537 2.09393 8.59996 2.20664L10.2933 5.61997L14.0933 6.17331C14.2167 6.19084 14.3327 6.24262 14.4281 6.32275C14.5236 6.40288 14.5947 6.50816 14.6333 6.62664C14.6687 6.74242 14.6718 6.86565 14.6425 6.9831C14.6131 7.10055 14.5523 7.20779 14.4666 7.29331L11.72 9.95997L12.3866 13.7133C12.4104 13.8383 12.398 13.9675 12.3507 14.0856C12.3035 14.2037 12.2234 14.3059 12.12 14.38C11.9992 14.4646 11.8539 14.5068 11.7066 14.5Z" fill="#E6AC39"/>
</g>
<defs>
<clipPath id="clip0_16204_707">
<rect width="16" height="16" fill="white" transform="translate(0 0.5)"/>
</clipPath>
</defs>
</svg>
